# xmcd
#
# Track frame offsets:
#	150
#	17996
#	35158
#	51510
#	67280
#	83521
#	99751
#	115225
#	136588
#	151684
#	167717
#	181849
#	198730
#	215402
#	232566
#	249362
#
# Disc length: 3525 seconds
#
# Revision: 7
# Processed by: cddbd v1.5.2PL0 Copyright (c) Steve Scherf et al.
# Submitted via: EasyCDDAExtractor 15.3.0.1
#
DISCID=cd0dc310
DTITLE=Britney Spears - Femme Fatale (Deluxe Edition)
DYEAR=2011
DGENRE=Pop
TTITLE0=Till The World Ends
TTITLE1=Hold It Against Me
TTITLE2=Inside Out
TTITLE3=I Wanna Go
TTITLE4=How I Roll
TTITLE5=(Drop Dead) Beautiful (Featuring Sabi)
TTITLE6=Seal It With A Kiss
TTITLE7=Big Fat Bass (Featuring Will.I.Am)
TTITLE8=Trouble For Me
TTITLE9=Trip To Your Heart
TTITLE10=Gasoline
TTITLE11=Criminal
TTITLE12=Up N' Down
TTITLE13=He About To Lose Me
TTITLE14=Selfish
TTITLE15=Don't Keep Me Waiting
EXTD=Femme Fatale (Deluxe Edition]\n© 2011 Jive Records/Sony Music Entertainme
EXTD=nt\n\nOriginally Released March 29, 2011\n
EXTT0=
EXTT1=
EXTT2=
EXTT3=
EXTT4=
EXTT5=
EXTT6=
EXTT7=
EXTT8=
EXTT9=
EXTT10=
EXTT11=
EXTT12=
EXTT13=
EXTT14=
EXTT15=
PLAYORDER=
